<svg width="587" height="676" viewBox="0 0 587 676" fill="none" xmlns="http://www.w3.org/2000/svg">
<rect width="587" height="675.271" rx="20" fill="#355300"/>
<g filter="url(#filter0_d_3319_270)">
<mask id="path-2-inside-1_3319_270" fill="white">
<rect x="139" y="80.2146" width="312" height="513" rx="10"/>
</mask>
<rect x="139" y="80.2146" width="312" height="513" rx="10" fill="#FEFFF0"/>
<rect x="139" y="80.2146" width="312" height="513" rx="10" stroke="#E7B343" stroke-width="30" mask="url(#path-2-inside-1_3319_270)"/>
</g>
<line x1="228" y1="126.215" x2="365" y2="126.215" stroke="#E7B343" stroke-width="10"/>
<g filter="url(#filter1_d_3319_270)">
<path d="M321.183 308.406C321.554 308.202 321.874 307.938 322.123 307.629C322.373 307.321 322.547 306.974 322.636 306.608C322.726 306.242 322.728 305.865 322.643 305.498C322.558 305.132 322.388 304.783 322.143 304.472C321.897 304.161 321.581 303.895 321.212 303.688C320.843 303.481 320.43 303.338 319.995 303.266C319.56 303.195 319.113 303.197 318.679 303.273C318.246 303.348 317.834 303.496 317.468 303.706L304.452 311.026C302.081 310.229 299.552 309.82 297 309.821C294.366 309.821 291.852 310.247 289.548 311.026L276.532 303.706C275.793 303.301 274.894 303.157 274.03 303.307C273.167 303.457 272.408 303.888 271.919 304.507C271.43 305.125 271.25 305.882 271.418 306.612C271.586 307.342 272.089 307.986 272.817 308.406L283.355 314.329C280.184 316.801 278.042 320.069 277.246 323.648C279.233 323.219 281.277 323.001 283.328 323.001H310.677C312.781 323.006 314.807 323.221 316.754 323.648C315.958 320.069 313.816 316.801 310.645 314.329L321.183 308.406ZM249 351.242C249 350.493 249.353 349.774 249.981 349.245C250.609 348.715 251.461 348.417 252.349 348.417H265.744V343.477C265.744 340.329 266.905 337.411 268.888 335.012L257.801 331.269C256.994 330.98 256.355 330.436 256.019 329.754C255.682 329.072 255.677 328.306 256.003 327.62C256.329 326.934 256.96 326.383 257.762 326.086C258.564 325.788 259.472 325.767 260.292 326.028L274.295 330.75C277.022 329.367 280.146 328.64 283.328 328.649H310.672C313.976 328.649 317.066 329.417 319.705 330.75L333.708 326.028C334.118 325.881 334.559 325.804 335.004 325.803C335.45 325.801 335.891 325.875 336.303 326.019C336.714 326.163 337.088 326.375 337.401 326.642C337.714 326.91 337.961 327.227 338.126 327.576C338.292 327.925 338.374 328.298 338.366 328.674C338.359 329.05 338.263 329.42 338.083 329.764C337.904 330.108 337.645 330.419 337.321 330.677C336.998 330.936 336.616 331.137 336.199 331.269L325.112 335.012C327.17 337.493 328.268 340.45 328.256 343.477V348.417H341.651C342.539 348.417 343.391 348.715 344.019 349.245C344.647 349.774 345 350.493 345 351.242C345 351.99 344.647 352.709 344.019 353.238C343.391 353.768 342.539 354.066 341.651 354.066H328.256V355.007C328.259 359.297 327.02 363.522 324.648 367.316L336.199 371.214C337.024 371.492 337.684 372.036 338.033 372.725C338.383 373.413 338.394 374.191 338.063 374.887C337.733 375.582 337.089 376.139 336.272 376.434C335.455 376.728 334.533 376.737 333.708 376.459L320.795 372.098C315.612 377.23 308.296 380.492 300.349 381.215V355.007C300.349 354.258 299.996 353.54 299.368 353.01C298.74 352.48 297.888 352.183 297 352.183C296.112 352.183 295.26 352.48 294.632 353.01C294.004 353.54 293.651 354.258 293.651 355.007V381.215C285.705 380.493 278.389 377.232 273.205 372.102L260.297 376.455C259.888 376.593 259.452 376.662 259.012 376.657C258.572 376.653 258.137 376.576 257.733 376.43C257.328 376.284 256.962 376.072 256.654 375.807C256.347 375.541 256.105 375.227 255.941 374.883C255.777 374.539 255.696 374.17 255.701 373.799C255.706 373.428 255.798 373.062 255.971 372.721C256.144 372.38 256.395 372.071 256.71 371.811C257.025 371.552 257.397 371.348 257.805 371.21L269.361 367.313C266.986 363.52 265.745 359.296 265.744 355.007V354.066H252.349C251.461 354.066 250.609 353.768 249.981 353.238C249.353 352.709 249 351.99 249 351.242Z" fill="#E7B343"/>
</g>
<g filter="url(#filter2_d_3319_270)">
<path d="M382.889 231.415H332.497C327.433 218.539 314.172 209.215 298.5 209.215C282.828 209.215 269.567 218.539 264.503 231.415H214.111C207.716 231.415 201.584 233.754 197.062 237.917C192.54 242.08 190 247.727 190 253.615V409.015C190 414.902 192.54 420.549 197.062 424.712C201.584 428.876 207.716 431.215 214.111 431.215H382.889C389.284 431.215 395.416 428.876 399.938 424.712C404.46 420.549 407 414.902 407 409.015V253.615C407 247.727 404.46 242.08 399.938 237.917C395.416 233.754 389.284 231.415 382.889 231.415ZM298.5 231.415C301.697 231.415 304.764 232.584 307.025 234.666C309.285 236.747 310.556 239.571 310.556 242.515C310.556 245.459 309.285 248.282 307.025 250.363C304.764 252.445 301.697 253.615 298.5 253.615C295.303 253.615 292.236 252.445 289.975 250.363C287.715 248.282 286.444 245.459 286.444 242.515C286.444 239.571 287.715 236.747 289.975 234.666C292.236 232.584 295.303 231.415 298.5 231.415ZM238.222 275.815H358.778V253.615H382.889V409.015H214.111V253.615H238.222V275.815Z" fill="#355300"/>
</g>
<path d="M299.5 503.715C316.105 503.715 329.5 516.959 329.5 533.215C329.5 549.471 316.105 562.715 299.5 562.715C282.895 562.715 269.5 549.471 269.5 533.215C269.5 516.959 282.895 503.715 299.5 503.715Z" fill="#E7B343" stroke="#E7B343" stroke-width="5"/>
<defs>
<filter id="filter0_d_3319_270" x="135" y="80.2146" width="320" height="521" filterUnits="userSpaceOnUse" color-interpolation-filters="sRGB">
<feFlood flood-opacity="0" result="BackgroundImageFix"/>
<feColorMatrix in="SourceAlpha" type="matrix" values="0 0 0 0 0 0 0 0 0 0 0 0 0 0 0 0 0 0 127 0" result="hardAlpha"/>
<feOffset dy="4"/>
<feGaussianBlur stdDeviation="2"/>
<feComposite in2="hardAlpha" operator="out"/>
<feColorMatrix type="matrix" values="0 0 0 0 0 0 0 0 0 0 0 0 0 0 0 0 0 0 0.25 0"/>
<feBlend mode="normal" in2="BackgroundImageFix" result="effect1_dropShadow_3319_270"/>
<feBlend mode="normal" in="SourceGraphic" in2="effect1_dropShadow_3319_270" result="shape"/>
</filter>
<filter id="filter1_d_3319_270" x="245" y="303.215" width="104" height="86" filterUnits="userSpaceOnUse" color-interpolation-filters="sRGB">
<feFlood flood-opacity="0" result="BackgroundImageFix"/>
<feColorMatrix in="SourceAlpha" type="matrix" values="0 0 0 0 0 0 0 0 0 0 0 0 0 0 0 0 0 0 127 0" result="hardAlpha"/>
<feOffset dy="4"/>
<feGaussianBlur stdDeviation="2"/>
<feComposite in2="hardAlpha" operator="out"/>
<feColorMatrix type="matrix" values="0 0 0 0 0 0 0 0 0 0 0 0 0 0 0 0 0 0 0.25 0"/>
<feBlend mode="normal" in2="BackgroundImageFix" result="effect1_dropShadow_3319_270"/>
<feBlend mode="normal" in="SourceGraphic" in2="effect1_dropShadow_3319_270" result="shape"/>
</filter>
<filter id="filter2_d_3319_270" x="186" y="209.215" width="225" height="230" filterUnits="userSpaceOnUse" color-interpolation-filters="sRGB">
<feFlood flood-opacity="0" result="BackgroundImageFix"/>
<feColorMatrix in="SourceAlpha" type="matrix" values="0 0 0 0 0 0 0 0 0 0 0 0 0 0 0 0 0 0 127 0" result="hardAlpha"/>
<feOffset dy="4"/>
<feGaussianBlur stdDeviation="2"/>
<feComposite in2="hardAlpha" operator="out"/>
<feColorMatrix type="matrix" values="0 0 0 0 0 0 0 0 0 0 0 0 0 0 0 0 0 0 0.25 0"/>
<feBlend mode="normal" in2="BackgroundImageFix" result="effect1_dropShadow_3319_270"/>
<feBlend mode="normal" in="SourceGraphic" in2="effect1_dropShadow_3319_270" result="shape"/>
</filter>
</defs>
</svg>
