<svg width="611" height="743" viewBox="0 0 611 743" fill="none" xmlns="http://www.w3.org/2000/svg">
<path d="M236.688 0H679V743H4.34682C4.34682 743 197.833 688.581 131.114 577.204C64.3947 465.826 -98.0858 344.291 82.4486 248.876C262.983 153.461 202.986 57.9556 236.688 0Z" fill="#E7B343"/>
<mask id="mask0_1402_475" style="mask-type:alpha" maskUnits="userSpaceOnUse" x="23" y="0" width="679" height="743">
<path d="M259.688 0H702V743H27.3468C27.3468 743 220.833 688.581 154.114 577.204C87.3947 465.826 -75.0858 344.291 105.449 248.876C285.983 153.461 225.986 57.9556 259.688 0Z" fill="#355300"/>
</mask>
<g mask="url(#mask0_1402_475)">
<path d="M259.688 0H702V743H27.3468C27.3468 743 220.833 688.581 154.114 577.204C87.3947 465.826 -75.0858 344.291 105.449 248.876C285.983 153.461 225.986 57.9556 259.688 0Z" fill="#355300"/>
</g>
<g filter="url(#filter0_d_1402_475)">
<mask id="path-4-inside-1_1402_475" fill="white">
<rect x="262.01" y="160.959" width="284.256" height="494.886" rx="10"/>
</mask>
<rect x="262.01" y="160.959" width="284.256" height="494.886" rx="10" fill="#FEFFF0"/>
<rect x="262.01" y="160.959" width="284.256" height="494.886" rx="10" stroke="#E7B343" stroke-width="30" mask="url(#path-4-inside-1_1402_475)"/>
</g>
<ellipse cx="405.5" cy="402" rx="55.5" ry="56" fill="#FEFFF0"/>
<line x1="343.549" y1="205.908" x2="468.13" y2="205.908" stroke="#E7B343" stroke-width="10"/>
<g filter="url(#filter1_d_1402_475)">
<path d="M427.416 381.925C427.752 381.731 428.042 381.481 428.268 381.188C428.494 380.896 428.652 380.566 428.733 380.219C428.814 379.872 428.816 379.514 428.739 379.167C428.662 378.819 428.508 378.488 428.285 378.193C428.063 377.898 427.776 377.645 427.442 377.449C427.108 377.253 426.733 377.117 426.339 377.049C425.945 376.982 425.54 376.984 425.147 377.055C424.754 377.127 424.381 377.267 424.049 377.466L412.254 384.411C410.105 383.655 407.813 383.267 405.5 383.268C403.113 383.268 400.834 383.672 398.746 384.411L386.951 377.466C386.281 377.082 385.466 376.945 384.684 377.088C383.901 377.23 383.213 377.639 382.77 378.226C382.327 378.813 382.164 379.53 382.316 380.223C382.468 380.915 382.924 381.527 383.584 381.925L393.134 387.544C390.26 389.89 388.319 392.99 387.598 396.386C389.399 395.978 391.251 395.772 393.11 395.771H417.894C419.802 395.776 421.637 395.981 423.402 396.386C422.681 392.99 420.74 389.89 417.866 387.544L427.416 381.925ZM362 422.564C362 421.853 362.32 421.172 362.889 420.669C363.458 420.167 364.23 419.885 365.035 419.885H377.174V415.198C377.174 412.211 378.227 409.443 380.023 407.167L369.976 403.616C369.245 403.342 368.665 402.826 368.361 402.178C368.056 401.531 368.051 400.804 368.346 400.154C368.642 399.503 369.214 398.98 369.941 398.698C370.668 398.416 371.491 398.396 372.234 398.643L384.923 403.123C387.395 401.811 390.226 401.121 393.11 401.13H417.89C420.885 401.13 423.685 401.859 426.077 403.123L438.766 398.643C439.138 398.504 439.537 398.431 439.941 398.43C440.345 398.428 440.745 398.498 441.118 398.635C441.491 398.772 441.829 398.973 442.113 399.226C442.397 399.48 442.621 399.781 442.771 400.112C442.921 400.443 442.995 400.797 442.988 401.154C442.982 401.51 442.894 401.862 442.732 402.188C442.569 402.515 442.334 402.809 442.041 403.054C441.748 403.299 441.402 403.49 441.024 403.616L430.977 407.167C432.841 409.521 433.836 412.326 433.826 415.198V419.885H445.965C446.77 419.885 447.542 420.167 448.111 420.669C448.68 421.172 449 421.853 449 422.564C449 423.275 448.68 423.956 448.111 424.459C447.542 424.961 446.77 425.243 445.965 425.243H433.826V426.136C433.828 430.206 432.706 434.215 430.556 437.814L441.024 441.512C441.772 441.776 442.37 442.292 442.687 442.945C443.003 443.599 443.013 444.337 442.714 444.997C442.414 445.657 441.83 446.184 441.09 446.464C440.35 446.744 439.514 446.752 438.766 446.488L427.064 442.351C422.367 447.22 415.737 450.315 408.535 451V426.136C408.535 425.426 408.215 424.744 407.646 424.242C407.077 423.739 406.305 423.457 405.5 423.457C404.695 423.457 403.923 423.739 403.354 424.242C402.785 424.744 402.465 425.426 402.465 426.136V451C395.264 450.316 388.633 447.222 383.936 442.355L372.238 446.485C371.868 446.615 371.472 446.681 371.073 446.677C370.675 446.672 370.281 446.599 369.914 446.461C369.548 446.322 369.215 446.121 368.937 445.869C368.658 445.618 368.439 445.32 368.29 444.993C368.142 444.666 368.068 444.317 368.073 443.965C368.077 443.613 368.161 443.265 368.317 442.942C368.474 442.618 368.702 442.325 368.987 442.079C369.272 441.833 369.61 441.639 369.98 441.508L380.452 437.811C378.3 434.213 377.175 430.205 377.174 426.136V425.243H365.035C364.23 425.243 363.458 424.961 362.889 424.459C362.32 423.956 362 423.275 362 422.564Z" fill="#E7B343"/>
</g>
<g filter="url(#filter2_d_1402_475)">
<path d="M484.111 307.4H438.363C433.767 294.988 421.728 286 407.5 286C393.272 286 381.233 294.988 376.637 307.4H330.889C325.084 307.4 319.516 309.655 315.411 313.668C311.306 317.681 309 323.124 309 328.8V478.6C309 484.276 311.306 489.719 315.411 493.732C319.516 497.745 325.084 500 330.889 500H484.111C489.916 500 495.484 497.745 499.589 493.732C503.694 489.719 506 484.276 506 478.6V328.8C506 323.124 503.694 317.681 499.589 313.668C495.484 309.655 489.916 307.4 484.111 307.4ZM407.5 307.4C410.403 307.4 413.186 308.527 415.239 310.534C417.291 312.541 418.444 315.262 418.444 318.1C418.444 320.938 417.291 323.659 415.239 325.666C413.186 327.673 410.403 328.8 407.5 328.8C404.597 328.8 401.814 327.673 399.761 325.666C397.709 323.659 396.556 320.938 396.556 318.1C396.556 315.262 397.709 312.541 399.761 310.534C401.814 308.527 404.597 307.4 407.5 307.4ZM352.778 350.2H462.222V328.8H484.111V478.6H330.889V328.8H352.778V350.2Z" fill="#355300"/>
</g>
<path d="M408 569.5C422.518 569.5 434.5 581.916 434.5 597.5C434.5 613.084 422.518 625.5 408 625.5C393.482 625.5 381.5 613.084 381.5 597.5C381.5 581.916 393.482 569.5 408 569.5Z" fill="#E7B343" stroke="#E7B343" stroke-width="5"/>
<defs>
<filter id="filter0_d_1402_475" x="258.01" y="160.959" width="292.256" height="502.886" filterUnits="userSpaceOnUse" color-interpolation-filters="sRGB">
<feFlood flood-opacity="0" result="BackgroundImageFix"/>
<feColorMatrix in="SourceAlpha" type="matrix" values="0 0 0 0 0 0 0 0 0 0 0 0 0 0 0 0 0 0 127 0" result="hardAlpha"/>
<feOffset dy="4"/>
<feGaussianBlur stdDeviation="2"/>
<feComposite in2="hardAlpha" operator="out"/>
<feColorMatrix type="matrix" values="0 0 0 0 0 0 0 0 0 0 0 0 0 0 0 0 0 0 0.25 0"/>
<feBlend mode="normal" in2="BackgroundImageFix" result="effect1_dropShadow_1402_475"/>
<feBlend mode="normal" in="SourceGraphic" in2="effect1_dropShadow_1402_475" result="shape"/>
</filter>
<filter id="filter1_d_1402_475" x="358" y="377" width="95" height="82" filterUnits="userSpaceOnUse" color-interpolation-filters="sRGB">
<feFlood flood-opacity="0" result="BackgroundImageFix"/>
<feColorMatrix in="SourceAlpha" type="matrix" values="0 0 0 0 0 0 0 0 0 0 0 0 0 0 0 0 0 0 127 0" result="hardAlpha"/>
<feOffset dy="4"/>
<feGaussianBlur stdDeviation="2"/>
<feComposite in2="hardAlpha" operator="out"/>
<feColorMatrix type="matrix" values="0 0 0 0 0 0 0 0 0 0 0 0 0 0 0 0 0 0 0.25 0"/>
<feBlend mode="normal" in2="BackgroundImageFix" result="effect1_dropShadow_1402_475"/>
<feBlend mode="normal" in="SourceGraphic" in2="effect1_dropShadow_1402_475" result="shape"/>
</filter>
<filter id="filter2_d_1402_475" x="305" y="286" width="205" height="222" filterUnits="userSpaceOnUse" color-interpolation-filters="sRGB">
<feFlood flood-opacity="0" result="BackgroundImageFix"/>
<feColorMatrix in="SourceAlpha" type="matrix" values="0 0 0 0 0 0 0 0 0 0 0 0 0 0 0 0 0 0 127 0" result="hardAlpha"/>
<feOffset dy="4"/>
<feGaussianBlur stdDeviation="2"/>
<feComposite in2="hardAlpha" operator="out"/>
<feColorMatrix type="matrix" values="0 0 0 0 0 0 0 0 0 0 0 0 0 0 0 0 0 0 0.25 0"/>
<feBlend mode="normal" in2="BackgroundImageFix" result="effect1_dropShadow_1402_475"/>
<feBlend mode="normal" in="SourceGraphic" in2="effect1_dropShadow_1402_475" result="shape"/>
</filter>
</defs>
</svg>
