<svg width="611" height="743" viewBox="0 0 611 743" fill="none" xmlns="http://www.w3.org/2000/svg">
<path d="M236.688 0H679V743H4.34682C4.34682 743 197.833 688.581 131.114 577.204C64.3947 465.826 -98.0858 344.291 82.4486 248.876C262.983 153.461 202.986 57.9556 236.688 0Z" fill="#E7B343"/>
<mask id="mask0_1384_465" style="mask-type:alpha" maskUnits="userSpaceOnUse" x="23" y="0" width="679" height="743">
<path d="M259.688 0H702V743H27.3468C27.3468 743 220.833 688.581 154.114 577.204C87.3947 465.826 -75.0858 344.291 105.449 248.876C285.983 153.461 225.986 57.9556 259.688 0Z" fill="#355300"/>
</mask>
<g mask="url(#mask0_1384_465)">
<path d="M259.688 0H702V743H27.3468C27.3468 743 220.833 688.581 154.114 577.204C87.3947 465.826 -75.0858 344.291 105.449 248.876C285.983 153.461 225.986 57.9556 259.688 0Z" fill="#355300"/>
</g>
<g filter="url(#filter0_d_1384_465)">
<mask id="path-4-inside-1_1384_465" fill="white">
<rect x="262.01" y="160.959" width="284.256" height="494.886" rx="10"/>
</mask>
<rect x="262.01" y="160.959" width="284.256" height="494.886" rx="10" fill="#FEFFF0"/>
<rect x="262.01" y="160.959" width="284.256" height="494.886" rx="10" stroke="#E7B343" stroke-width="30" mask="url(#path-4-inside-1_1384_465)"/>
</g>
<line x1="343.549" y1="205.908" x2="468.13" y2="205.908" stroke="#E7B343" stroke-width="10"/>
<path d="M408 569.5C422.518 569.5 434.5 581.916 434.5 597.5C434.5 613.084 422.518 625.5 408 625.5C393.482 625.5 381.5 613.084 381.5 597.5C381.5 581.916 393.482 569.5 408 569.5Z" fill="#E7B343" stroke="#E7B343" stroke-width="5"/>
<g filter="url(#filter1_d_1384_465)">
<path d="M312 374.528V368.256C311.999 363.694 313.284 359.218 315.719 355.302C318.153 351.385 321.646 348.176 325.826 346.013L391.541 312.018C395.37 310.037 399.651 309 404 309C408.349 309 412.63 310.037 416.459 312.018L482.174 346.013C486.354 348.176 489.847 351.385 492.281 355.302C494.716 359.218 496.001 363.694 496 368.256V374.528L422.172 416L416.459 413.045C412.63 411.064 408.349 410.027 404 410.027C399.651 410.027 395.37 411.064 391.541 413.045L385.828 416L312 374.528Z" fill="#355300"/>
</g>
<rect x="322" y="338" width="162" height="96" rx="10" fill="#FEFCF0"/>
<path d="M376.304 374.88L372.88 396H369.2L372.592 374.88H376.304ZM377.808 387.648V390.912H358.832V387.648H377.808ZM368.464 374.88L365.072 396H361.36L364.752 374.88H368.464ZM379.184 379.968V383.232H360.208V379.968H379.184ZM398.335 374.88L394.911 396H391.231L394.623 374.88H398.335ZM399.839 387.648V390.912H380.863V387.648H399.839ZM390.495 374.88L387.103 396H383.391L386.783 374.88H390.495ZM401.215 379.968V383.232H382.239V379.968H401.215ZM420.367 374.88L416.943 396H413.263L416.655 374.88H420.367ZM421.871 387.648V390.912H402.895V387.648H421.871ZM412.527 374.88L409.135 396H405.423L408.815 374.88H412.527ZM423.247 379.968V383.232H404.271V379.968H423.247ZM442.398 374.88L438.974 396H435.294L438.686 374.88H442.398ZM443.902 387.648V390.912H424.926V387.648H443.902ZM434.558 374.88L431.166 396H427.454L430.846 374.88H434.558ZM445.278 379.968V383.232H426.302V379.968H445.278Z" fill="#355300"/>
<g filter="url(#filter2_d_1384_465)">
<path d="M469.714 484C476.686 484 483.372 481.313 488.301 476.53C493.231 471.746 496 465.259 496 458.494V389L435.727 423.195L466.262 439.144C467.022 439.542 467.694 440.08 468.239 440.73C468.785 441.379 469.193 442.126 469.441 442.929C469.688 443.731 469.771 444.573 469.683 445.407C469.596 446.24 469.34 447.049 468.93 447.786C468.52 448.524 467.965 449.176 467.296 449.705C466.627 450.234 465.856 450.63 465.029 450.871C464.202 451.111 463.335 451.191 462.476 451.106C461.617 451.021 460.784 450.773 460.024 450.375L410.23 424.359C408.315 423.359 406.174 422.836 404 422.836C401.826 422.836 399.685 423.359 397.77 424.359L347.976 450.375C346.446 451.144 344.665 451.298 343.018 450.805C341.372 450.312 339.99 449.211 339.172 447.739C338.354 446.267 338.164 444.543 338.644 442.937C339.124 441.33 340.235 439.971 341.738 439.153L372.273 423.195L312 389V458.494C312 465.259 314.769 471.746 319.699 476.53C324.628 481.313 331.314 484 338.286 484H469.714Z" fill="#355300"/>
</g>
<defs>
<filter id="filter0_d_1384_465" x="258.01" y="160.959" width="292.256" height="502.886" filterUnits="userSpaceOnUse" color-interpolation-filters="sRGB">
<feFlood flood-opacity="0" result="BackgroundImageFix"/>
<feColorMatrix in="SourceAlpha" type="matrix" values="0 0 0 0 0 0 0 0 0 0 0 0 0 0 0 0 0 0 127 0" result="hardAlpha"/>
<feOffset dy="4"/>
<feGaussianBlur stdDeviation="2"/>
<feComposite in2="hardAlpha" operator="out"/>
<feColorMatrix type="matrix" values="0 0 0 0 0 0 0 0 0 0 0 0 0 0 0 0 0 0 0.25 0"/>
<feBlend mode="normal" in2="BackgroundImageFix" result="effect1_dropShadow_1384_465"/>
<feBlend mode="normal" in="SourceGraphic" in2="effect1_dropShadow_1384_465" result="shape"/>
</filter>
<filter id="filter1_d_1384_465" x="308" y="309" width="192" height="115" filterUnits="userSpaceOnUse" color-interpolation-filters="sRGB">
<feFlood flood-opacity="0" result="BackgroundImageFix"/>
<feColorMatrix in="SourceAlpha" type="matrix" values="0 0 0 0 0 0 0 0 0 0 0 0 0 0 0 0 0 0 127 0" result="hardAlpha"/>
<feOffset dy="4"/>
<feGaussianBlur stdDeviation="2"/>
<feComposite in2="hardAlpha" operator="out"/>
<feColorMatrix type="matrix" values="0 0 0 0 0 0 0 0 0 0 0 0 0 0 0 0 0 0 0.25 0"/>
<feBlend mode="normal" in2="BackgroundImageFix" result="effect1_dropShadow_1384_465"/>
<feBlend mode="normal" in="SourceGraphic" in2="effect1_dropShadow_1384_465" result="shape"/>
</filter>
<filter id="filter2_d_1384_465" x="308" y="389" width="192" height="103" filterUnits="userSpaceOnUse" color-interpolation-filters="sRGB">
<feFlood flood-opacity="0" result="BackgroundImageFix"/>
<feColorMatrix in="SourceAlpha" type="matrix" values="0 0 0 0 0 0 0 0 0 0 0 0 0 0 0 0 0 0 127 0" result="hardAlpha"/>
<feOffset dy="4"/>
<feGaussianBlur stdDeviation="2"/>
<feComposite in2="hardAlpha" operator="out"/>
<feColorMatrix type="matrix" values="0 0 0 0 0 0 0 0 0 0 0 0 0 0 0 0 0 0 0.25 0"/>
<feBlend mode="normal" in2="BackgroundImageFix" result="effect1_dropShadow_1384_465"/>
<feBlend mode="normal" in="SourceGraphic" in2="effect1_dropShadow_1384_465" result="shape"/>
</filter>
</defs>
</svg>
