<svg width="616" height="743" viewBox="0 0 616 743" fill="none" xmlns="http://www.w3.org/2000/svg">
<path d="M236.688 0H679V743H4.34682C4.34682 743 197.833 688.581 131.114 577.204C64.3947 465.826 -98.0858 344.291 82.4486 248.876C262.983 153.461 202.986 57.9556 236.688 0Z" fill="#E7B343"/>
<mask id="mask0_1384_460" style="mask-type:alpha" maskUnits="userSpaceOnUse" x="23" y="0" width="679" height="743">
<path d="M259.688 0H702V743H27.3468C27.3468 743 220.833 688.581 154.114 577.204C87.3947 465.826 -75.0858 344.291 105.449 248.876C285.983 153.461 225.986 57.9556 259.688 0Z" fill="#355300"/>
</mask>
<g mask="url(#mask0_1384_460)">
<path d="M259.688 0H702V743H27.3468C27.3468 743 220.833 688.581 154.114 577.204C87.3947 465.826 -75.0858 344.291 105.449 248.876C285.983 153.461 225.986 57.9556 259.688 0Z" fill="#355300"/>
</g>
<g filter="url(#filter0_d_1384_460)">
<mask id="path-4-inside-1_1384_460" fill="white">
<rect x="262.01" y="160.959" width="284.256" height="494.886" rx="10"/>
</mask>
<rect x="262.01" y="160.959" width="284.256" height="494.886" rx="10" fill="#FEFFF0"/>
<rect x="262.01" y="160.959" width="284.256" height="494.886" rx="10" stroke="#E7B343" stroke-width="30" mask="url(#path-4-inside-1_1384_460)"/>
</g>
<line x1="343.549" y1="205.908" x2="468.13" y2="205.908" stroke="#E7B343" stroke-width="10"/>
<g filter="url(#filter1_d_1384_460)">
<path d="M329.25 324C319.727 324 312 331.447 312 340.625C312 345.855 314.552 350.773 318.9 353.925L397.1 410.45C401.197 413.394 406.803 413.394 410.9 410.45L489.1 353.925C493.448 350.773 496 345.855 496 340.625C496 331.447 488.273 324 478.75 324H329.25ZM312 362.792V434.833C312 447.06 322.314 457 335 457H473C485.686 457 496 447.06 496 434.833V362.792L417.8 419.317C409.606 425.239 398.394 425.239 390.2 419.317L312 362.792Z" fill="#355300"/>
</g>
<path d="M408 569.5C422.518 569.5 434.5 581.916 434.5 597.5C434.5 613.084 422.518 625.5 408 625.5C393.482 625.5 381.5 613.084 381.5 597.5C381.5 581.916 393.482 569.5 408 569.5Z" fill="#E7B343" stroke="#E7B343" stroke-width="5"/>
<defs>
<filter id="filter0_d_1384_460" x="258.01" y="160.959" width="292.256" height="502.886" filterUnits="userSpaceOnUse" color-interpolation-filters="sRGB">
<feFlood flood-opacity="0" result="BackgroundImageFix"/>
<feColorMatrix in="SourceAlpha" type="matrix" values="0 0 0 0 0 0 0 0 0 0 0 0 0 0 0 0 0 0 127 0" result="hardAlpha"/>
<feOffset dy="4"/>
<feGaussianBlur stdDeviation="2"/>
<feComposite in2="hardAlpha" operator="out"/>
<feColorMatrix type="matrix" values="0 0 0 0 0 0 0 0 0 0 0 0 0 0 0 0 0 0 0.25 0"/>
<feBlend mode="normal" in2="BackgroundImageFix" result="effect1_dropShadow_1384_460"/>
<feBlend mode="normal" in="SourceGraphic" in2="effect1_dropShadow_1384_460" result="shape"/>
</filter>
<filter id="filter1_d_1384_460" x="308" y="324" width="192" height="141" filterUnits="userSpaceOnUse" color-interpolation-filters="sRGB">
<feFlood flood-opacity="0" result="BackgroundImageFix"/>
<feColorMatrix in="SourceAlpha" type="matrix" values="0 0 0 0 0 0 0 0 0 0 0 0 0 0 0 0 0 0 127 0" result="hardAlpha"/>
<feOffset dy="4"/>
<feGaussianBlur stdDeviation="2"/>
<feComposite in2="hardAlpha" operator="out"/>
<feColorMatrix type="matrix" values="0 0 0 0 0 0 0 0 0 0 0 0 0 0 0 0 0 0 0.25 0"/>
<feBlend mode="normal" in2="BackgroundImageFix" result="effect1_dropShadow_1384_460"/>
<feBlend mode="normal" in="SourceGraphic" in2="effect1_dropShadow_1384_460" result="shape"/>
</filter>
</defs>
</svg>
