<svg width="611" height="743" viewBox="0 0 611 743" fill="none" xmlns="http://www.w3.org/2000/svg">
<path d="M236.688 0H679V743H4.34682C4.34682 743 197.833 688.581 131.114 577.204C64.3947 465.826 -98.0858 344.291 82.4486 248.876C262.983 153.461 202.986 57.9556 236.688 0Z" fill="#E7B343"/>
<mask id="mask0_1384_468" style="mask-type:alpha" maskUnits="userSpaceOnUse" x="23" y="0" width="679" height="743">
<path d="M259.688 0H702V743H27.3468C27.3468 743 220.833 688.581 154.114 577.204C87.3947 465.826 -75.0858 344.291 105.449 248.876C285.983 153.461 225.986 57.9556 259.688 0Z" fill="#355300"/>
</mask>
<g mask="url(#mask0_1384_468)">
<path d="M259.688 0H702V743H27.3468C27.3468 743 220.833 688.581 154.114 577.204C87.3947 465.826 -75.0858 344.291 105.449 248.876C285.983 153.461 225.986 57.9556 259.688 0Z" fill="#355300"/>
</g>
<g filter="url(#filter0_d_1384_468)">
<mask id="path-4-inside-1_1384_468" fill="white">
<rect x="262.01" y="160.959" width="284.256" height="494.886" rx="10"/>
</mask>
<rect x="262.01" y="160.959" width="284.256" height="494.886" rx="10" fill="#FEFFF0"/>
<rect x="262.01" y="160.959" width="284.256" height="494.886" rx="10" stroke="#E7B343" stroke-width="30" mask="url(#path-4-inside-1_1384_468)"/>
</g>
<g filter="url(#filter1_d_1384_468)">
<path d="M453 334.667H445.5V321.333C445.5 302.933 428.7 288 408 288C387.3 288 370.5 302.933 370.5 321.333V334.667H363C354.75 334.667 348 340.667 348 348V414.667C348 422 354.75 428 363 428H453C461.25 428 468 422 468 414.667V348C468 340.667 461.25 334.667 453 334.667ZM408 394.667C399.75 394.667 393 388.667 393 381.333C393 374 399.75 368 408 368C416.25 368 423 374 423 381.333C423 388.667 416.25 394.667 408 394.667ZM385.5 334.667V321.333C385.5 310.267 395.55 301.333 408 301.333C420.45 301.333 430.5 310.267 430.5 321.333V334.667H385.5Z" fill="#355300"/>
</g>
<g filter="url(#filter2_d_1384_468)">
<rect x="302" y="454" width="208" height="37" rx="5" fill="#E7B343" shape-rendering="crispEdges"/>
<circle cx="356" cy="472.5" r="10" fill="#FEFFF0"/>
<circle cx="381" cy="472.5" r="10" fill="#FEFFF0"/>
<circle cx="406" cy="472.5" r="10" fill="#FEFFF0"/>
<circle cx="431" cy="472.5" r="10" fill="#FEFFF0"/>
<circle cx="456" cy="472.5" r="10" fill="#FEFFF0"/>
</g>
<line x1="343.549" y1="205.908" x2="468.13" y2="205.908" stroke="#E7B343" stroke-width="10"/>
<path d="M408 569.5C422.518 569.5 434.5 581.916 434.5 597.5C434.5 613.084 422.518 625.5 408 625.5C393.482 625.5 381.5 613.084 381.5 597.5C381.5 581.916 393.482 569.5 408 569.5Z" fill="#E7B343" stroke="#E7B343" stroke-width="5"/>
<defs>
<filter id="filter0_d_1384_468" x="258.01" y="160.959" width="292.256" height="502.886" filterUnits="userSpaceOnUse" color-interpolation-filters="sRGB">
<feFlood flood-opacity="0" result="BackgroundImageFix"/>
<feColorMatrix in="SourceAlpha" type="matrix" values="0 0 0 0 0 0 0 0 0 0 0 0 0 0 0 0 0 0 127 0" result="hardAlpha"/>
<feOffset dy="4"/>
<feGaussianBlur stdDeviation="2"/>
<feComposite in2="hardAlpha" operator="out"/>
<feColorMatrix type="matrix" values="0 0 0 0 0 0 0 0 0 0 0 0 0 0 0 0 0 0 0.25 0"/>
<feBlend mode="normal" in2="BackgroundImageFix" result="effect1_dropShadow_1384_468"/>
<feBlend mode="normal" in="SourceGraphic" in2="effect1_dropShadow_1384_468" result="shape"/>
</filter>
<filter id="filter1_d_1384_468" x="344" y="288" width="128" height="148" filterUnits="userSpaceOnUse" color-interpolation-filters="sRGB">
<feFlood flood-opacity="0" result="BackgroundImageFix"/>
<feColorMatrix in="SourceAlpha" type="matrix" values="0 0 0 0 0 0 0 0 0 0 0 0 0 0 0 0 0 0 127 0" result="hardAlpha"/>
<feOffset dy="4"/>
<feGaussianBlur stdDeviation="2"/>
<feComposite in2="hardAlpha" operator="out"/>
<feColorMatrix type="matrix" values="0 0 0 0 0 0 0 0 0 0 0 0 0 0 0 0 0 0 0.25 0"/>
<feBlend mode="normal" in2="BackgroundImageFix" result="effect1_dropShadow_1384_468"/>
<feBlend mode="normal" in="SourceGraphic" in2="effect1_dropShadow_1384_468" result="shape"/>
</filter>
<filter id="filter2_d_1384_468" x="298" y="454" width="216" height="45" filterUnits="userSpaceOnUse" color-interpolation-filters="sRGB">
<feFlood flood-opacity="0" result="BackgroundImageFix"/>
<feColorMatrix in="SourceAlpha" type="matrix" values="0 0 0 0 0 0 0 0 0 0 0 0 0 0 0 0 0 0 127 0" result="hardAlpha"/>
<feOffset dy="4"/>
<feGaussianBlur stdDeviation="2"/>
<feComposite in2="hardAlpha" operator="out"/>
<feColorMatrix type="matrix" values="0 0 0 0 0 0 0 0 0 0 0 0 0 0 0 0 0 0 0.25 0"/>
<feBlend mode="normal" in2="BackgroundImageFix" result="effect1_dropShadow_1384_468"/>
<feBlend mode="normal" in="SourceGraphic" in2="effect1_dropShadow_1384_468" result="shape"/>
</filter>
</defs>
</svg>
