<svg width="23" height="20" viewBox="0 0 23 20" fill="none" xmlns="http://www.w3.org/2000/svg">
<path d="M22.8362 10.2222C22.8362 9.39995 22.7594 8.79995 22.5931 8.17773H11.7783V11.8888H18.1263C17.9984 12.8111 17.3073 14.1999 15.7714 15.1332L15.7499 15.2575L19.1693 17.5572L19.4062 17.5777C21.5819 15.8333 22.8362 13.2666 22.8362 10.2222Z" fill="#4285F4"/>
<path d="M11.7783 20C14.8883 20 17.4992 19.1111 19.4062 17.5778L15.7714 15.1333C14.7987 15.7222 13.4933 16.1333 11.7783 16.1333C8.73229 16.1333 6.14701 14.3889 5.22543 11.9778L5.09034 11.9877L1.53478 14.3766L1.48828 14.4889C3.38244 17.7555 7.2732 20 11.7783 20Z" fill="#34A853"/>
<path d="M5.22456 11.9778C4.98139 11.3555 4.84066 10.6888 4.84066 9.99997C4.84066 9.31104 4.98139 8.6444 5.21177 8.02219L5.20533 7.88967L1.60521 5.4624L1.48742 5.51104C0.706742 6.86662 0.258789 8.38887 0.258789 9.99997C0.258789 11.6111 0.706742 13.1333 1.48742 14.4888L5.22456 11.9778Z" fill="#FBBC05"/>
<path d="M11.7783 3.86664C13.9412 3.86664 15.4002 4.67775 16.2322 5.35557L19.483 2.6C17.4865 0.988893 14.8883 0 11.7783 0C7.2732 0 3.38244 2.24443 1.48828 5.51107L5.21263 8.02221C6.14701 5.61111 8.73229 3.86664 11.7783 3.86664Z" fill="#E54F3A"/>
</svg>
