<svg width="583" height="680" viewBox="0 0 583 680" fill="none" xmlns="http://www.w3.org/2000/svg">
<rect width="583" height="679.07" rx="20" fill="#355300"/>
<g filter="url(#filter0_d_3285_315)">
<mask id="path-2-inside-1_3285_315" fill="white">
<rect x="149.156" y="94.7614" width="312.098" height="512.819" rx="10"/>
</mask>
<rect x="149.156" y="94.7614" width="312.098" height="512.819" rx="10" fill="#FEFFF0"/>
<rect x="149.156" y="94.7614" width="312.098" height="512.819" rx="10" stroke="#E7B343" stroke-width="30" mask="url(#path-2-inside-1_3285_315)"/>
</g>
<g filter="url(#filter1_d_3285_315)">
<path d="M358.851 274.764H350.616V260.947C350.616 241.88 332.171 226.406 309.443 226.406C286.716 226.406 268.27 241.88 268.27 260.947V274.764H260.036C250.978 274.764 243.566 280.981 243.566 288.58V357.662C243.566 365.261 250.978 371.479 260.036 371.479H358.851C367.909 371.479 375.32 365.261 375.32 357.662V288.58C375.32 280.981 367.909 274.764 358.851 274.764ZM309.443 336.938C300.385 336.938 292.974 330.72 292.974 323.121C292.974 315.522 300.385 309.305 309.443 309.305C318.501 309.305 325.913 315.522 325.913 323.121C325.913 330.72 318.501 336.938 309.443 336.938ZM284.739 274.764V260.947C284.739 249.48 295.774 240.222 309.443 240.222C323.113 240.222 334.147 249.48 334.147 260.947V274.764H284.739Z" fill="#355300"/>
</g>
<g filter="url(#filter2_d_3285_315)">
<rect x="193.062" y="398.421" width="228.373" height="38.3407" rx="5" fill="#E7B343" shape-rendering="crispEdges"/>
<circle cx="257.25" cy="417.591" r="10" fill="#FEFFF0"/>
<circle cx="282.25" cy="417.591" r="10" fill="#FEFFF0"/>
<circle cx="307.25" cy="417.591" r="10" fill="#FEFFF0"/>
<circle cx="332.25" cy="417.591" r="10" fill="#FEFFF0"/>
<circle cx="357.25" cy="417.591" r="10" fill="#FEFFF0"/>
</g>
<line x1="238.68" y1="141.52" x2="375.464" y2="141.52" stroke="#E7B343" stroke-width="10"/>
<path d="M315.012 518.016C334.701 518.016 349.918 531.425 349.918 547.121C349.918 562.817 334.701 576.226 315.012 576.226C295.322 576.226 280.106 562.817 280.105 547.121C280.105 531.425 295.322 518.016 315.012 518.016Z" fill="#E7B343" stroke="#E7B343" stroke-width="5"/>
<defs>
<filter id="filter0_d_3285_315" x="145.156" y="94.7614" width="320.098" height="520.819" filterUnits="userSpaceOnUse" color-interpolation-filters="sRGB">
<feFlood flood-opacity="0" result="BackgroundImageFix"/>
<feColorMatrix in="SourceAlpha" type="matrix" values="0 0 0 0 0 0 0 0 0 0 0 0 0 0 0 0 0 0 127 0" result="hardAlpha"/>
<feOffset dy="4"/>
<feGaussianBlur stdDeviation="2"/>
<feComposite in2="hardAlpha" operator="out"/>
<feColorMatrix type="matrix" values="0 0 0 0 0 0 0 0 0 0 0 0 0 0 0 0 0 0 0.25 0"/>
<feBlend mode="normal" in2="BackgroundImageFix" result="effect1_dropShadow_3285_315"/>
<feBlend mode="normal" in="SourceGraphic" in2="effect1_dropShadow_3285_315" result="shape"/>
</filter>
<filter id="filter1_d_3285_315" x="239.566" y="226.406" width="139.754" height="153.073" filterUnits="userSpaceOnUse" color-interpolation-filters="sRGB">
<feFlood flood-opacity="0" result="BackgroundImageFix"/>
<feColorMatrix in="SourceAlpha" type="matrix" values="0 0 0 0 0 0 0 0 0 0 0 0 0 0 0 0 0 0 127 0" result="hardAlpha"/>
<feOffset dy="4"/>
<feGaussianBlur stdDeviation="2"/>
<feComposite in2="hardAlpha" operator="out"/>
<feColorMatrix type="matrix" values="0 0 0 0 0 0 0 0 0 0 0 0 0 0 0 0 0 0 0.25 0"/>
<feBlend mode="normal" in2="BackgroundImageFix" result="effect1_dropShadow_3285_315"/>
<feBlend mode="normal" in="SourceGraphic" in2="effect1_dropShadow_3285_315" result="shape"/>
</filter>
<filter id="filter2_d_3285_315" x="189.062" y="398.421" width="236.373" height="46.3407" filterUnits="userSpaceOnUse" color-interpolation-filters="sRGB">
<feFlood flood-opacity="0" result="BackgroundImageFix"/>
<feColorMatrix in="SourceAlpha" type="matrix" values="0 0 0 0 0 0 0 0 0 0 0 0 0 0 0 0 0 0 127 0" result="hardAlpha"/>
<feOffset dy="4"/>
<feGaussianBlur stdDeviation="2"/>
<feComposite in2="hardAlpha" operator="out"/>
<feColorMatrix type="matrix" values="0 0 0 0 0 0 0 0 0 0 0 0 0 0 0 0 0 0 0.25 0"/>
<feBlend mode="normal" in2="BackgroundImageFix" result="effect1_dropShadow_3285_315"/>
<feBlend mode="normal" in="SourceGraphic" in2="effect1_dropShadow_3285_315" result="shape"/>
</filter>
</defs>
</svg>
