<svg width="611" height="743" viewBox="0 0 611 743" fill="none" xmlns="http://www.w3.org/2000/svg">
<path d="M236.688 0H679V743H4.34682C4.34682 743 197.833 688.581 131.114 577.204C64.3947 465.826 -98.0858 344.291 82.4486 248.876C262.983 153.461 202.986 57.9556 236.688 0Z" fill="#E7B343"/>
<mask id="mask0_1402_471" style="mask-type:alpha" maskUnits="userSpaceOnUse" x="23" y="0" width="679" height="743">
<path d="M259.688 0H702V743H27.3468C27.3468 743 220.833 688.581 154.114 577.204C87.3947 465.826 -75.0858 344.291 105.449 248.876C285.983 153.461 225.986 57.9556 259.688 0Z" fill="#355300"/>
</mask>
<g mask="url(#mask0_1402_471)">
<path d="M259.688 0H702V743H27.3468C27.3468 743 220.833 688.581 154.114 577.204C87.3947 465.826 -75.0858 344.291 105.449 248.876C285.983 153.461 225.986 57.9556 259.688 0Z" fill="#355300"/>
</g>
<g filter="url(#filter0_d_1402_471)">
<mask id="path-4-inside-1_1402_471" fill="white">
<rect x="262.01" y="160.959" width="284.256" height="494.886" rx="10"/>
</mask>
<rect x="262.01" y="160.959" width="284.256" height="494.886" rx="10" fill="#FEFFF0"/>
<rect x="262.01" y="160.959" width="284.256" height="494.886" rx="10" stroke="#E7B343" stroke-width="30" mask="url(#path-4-inside-1_1402_471)"/>
</g>
<g filter="url(#filter1_d_1402_471)">
<path d="M391.59 491C387.028 491 383.102 489.605 379.811 486.815C376.52 484.025 374.533 480.615 373.851 476.585L371.57 461.24C369.374 460.465 367.306 459.535 365.366 458.45C363.427 457.365 361.525 456.202 359.659 454.963L343.948 461.007C339.724 462.712 335.501 462.868 331.277 461.473C327.053 460.078 323.759 457.598 321.394 454.033L309.483 434.967C307.118 431.403 306.442 427.605 307.456 423.575C308.47 419.545 310.751 416.213 314.298 413.578L327.729 404.278C327.56 403.193 327.476 402.145 327.476 401.134V394.857C327.476 393.852 327.56 392.808 327.729 391.723L314.298 382.423C310.751 379.787 308.47 376.455 307.456 372.425C306.442 368.395 307.118 364.597 309.483 361.032L321.394 341.967C323.759 338.403 327.053 335.923 331.277 334.528C335.501 333.133 339.724 333.288 343.948 334.993L359.659 341.038C361.518 339.798 363.461 338.635 365.488 337.55C367.515 336.465 369.543 335.535 371.57 334.76L373.851 319.415C374.526 315.385 376.513 311.975 379.811 309.185C383.109 306.395 387.035 305 391.59 305H415.41C419.972 305 423.901 306.395 427.199 309.185C430.497 311.975 432.48 315.385 433.149 319.415L435.43 334.76C437.626 335.535 439.698 336.465 441.644 337.55C443.59 338.635 445.489 339.798 447.341 341.038L463.052 334.993C467.276 333.288 471.499 333.133 475.723 334.528C479.947 335.923 483.241 338.403 485.606 341.967L497.517 361.032C499.882 364.597 500.557 368.395 499.544 372.425C498.53 376.455 496.249 379.787 492.702 382.423L479.271 391.723C479.44 392.808 479.524 393.855 479.524 394.866V401.134C479.524 402.145 479.355 403.193 479.017 404.278L492.448 413.578C495.996 416.213 498.277 419.545 499.29 423.575C500.304 427.605 499.628 431.403 497.263 434.967L485.099 454.033C482.734 457.598 479.44 460.078 475.216 461.473C470.993 462.868 466.769 462.712 462.545 461.007L447.341 454.963C445.482 456.202 443.539 457.365 441.512 458.45C439.485 459.535 437.457 460.465 435.43 461.24L433.149 476.585C432.474 480.615 430.49 484.025 427.199 486.815C423.908 489.605 419.979 491 415.41 491H391.59ZM404.007 430.55C413.805 430.55 422.168 427.373 429.095 421.018C436.021 414.663 439.485 406.99 439.485 398C439.485 389.01 436.021 381.338 429.095 374.982C422.168 368.627 413.805 365.45 404.007 365.45C394.039 365.45 385.633 368.627 378.787 374.982C371.942 381.338 368.522 389.01 368.529 398C368.536 406.99 371.958 414.663 378.797 421.018C385.636 427.373 394.039 430.55 404.007 430.55Z" fill="#355300"/>
</g>
<ellipse cx="403.5" cy="398" rx="50.5" ry="51" fill="#FEFFF0"/>
<g filter="url(#filter2_d_1402_471)">
<path fill-rule="evenodd" clip-rule="evenodd" d="M433.393 373.931C433.841 374.271 434.212 374.688 434.484 375.159C434.757 375.631 434.925 376.147 434.98 376.678C435.035 377.209 434.976 377.745 434.805 378.255C434.635 378.765 434.356 379.239 433.986 379.651L398.418 419.176L398.404 419.184C397.596 420.078 396.581 420.794 395.433 421.281C394.285 421.768 393.033 422.013 391.769 421.999C390.485 421.986 389.221 421.706 388.073 421.179C386.924 420.653 385.921 419.895 385.137 418.961L385.133 418.953L373.993 405.807C373.621 405.388 373.344 404.904 373.179 404.385C373.013 403.866 372.962 403.322 373.028 402.784C373.095 402.247 373.278 401.727 373.566 401.255C373.854 400.783 374.242 400.369 374.707 400.037C375.172 399.705 375.704 399.461 376.273 399.32C376.842 399.179 377.436 399.145 378.02 399.217C378.603 399.29 379.166 399.469 379.673 399.744C380.18 400.019 380.623 400.385 380.974 400.819L391.875 413.684L427.16 374.475C427.53 374.064 427.985 373.723 428.498 373.473C429.011 373.224 429.573 373.069 430.152 373.018C430.73 372.968 431.314 373.022 431.869 373.179C432.425 373.335 432.941 373.591 433.389 373.931H433.393Z" fill="#E7B343"/>
</g>
<line x1="343.549" y1="205.908" x2="468.13" y2="205.908" stroke="#E7B343" stroke-width="10"/>
<path d="M408 569.5C422.518 569.5 434.5 581.916 434.5 597.5C434.5 613.084 422.518 625.5 408 625.5C393.482 625.5 381.5 613.084 381.5 597.5C381.5 581.916 393.482 569.5 408 569.5Z" fill="#E7B343" stroke="#E7B343" stroke-width="5"/>
<defs>
<filter id="filter0_d_1402_471" x="258.01" y="160.959" width="292.256" height="502.886" filterUnits="userSpaceOnUse" color-interpolation-filters="sRGB">
<feFlood flood-opacity="0" result="BackgroundImageFix"/>
<feColorMatrix in="SourceAlpha" type="matrix" values="0 0 0 0 0 0 0 0 0 0 0 0 0 0 0 0 0 0 127 0" result="hardAlpha"/>
<feOffset dy="4"/>
<feGaussianBlur stdDeviation="2"/>
<feComposite in2="hardAlpha" operator="out"/>
<feColorMatrix type="matrix" values="0 0 0 0 0 0 0 0 0 0 0 0 0 0 0 0 0 0 0.25 0"/>
<feBlend mode="normal" in2="BackgroundImageFix" result="effect1_dropShadow_1402_471"/>
<feBlend mode="normal" in="SourceGraphic" in2="effect1_dropShadow_1402_471" result="shape"/>
</filter>
<filter id="filter1_d_1402_471" x="303" y="305" width="201" height="194" filterUnits="userSpaceOnUse" color-interpolation-filters="sRGB">
<feFlood flood-opacity="0" result="BackgroundImageFix"/>
<feColorMatrix in="SourceAlpha" type="matrix" values="0 0 0 0 0 0 0 0 0 0 0 0 0 0 0 0 0 0 127 0" result="hardAlpha"/>
<feOffset dy="4"/>
<feGaussianBlur stdDeviation="2"/>
<feComposite in2="hardAlpha" operator="out"/>
<feColorMatrix type="matrix" values="0 0 0 0 0 0 0 0 0 0 0 0 0 0 0 0 0 0 0.25 0"/>
<feBlend mode="normal" in2="BackgroundImageFix" result="effect1_dropShadow_1402_471"/>
<feBlend mode="normal" in="SourceGraphic" in2="effect1_dropShadow_1402_471" result="shape"/>
</filter>
<filter id="filter2_d_1402_471" x="369" y="373" width="70" height="57" filterUnits="userSpaceOnUse" color-interpolation-filters="sRGB">
<feFlood flood-opacity="0" result="BackgroundImageFix"/>
<feColorMatrix in="SourceAlpha" type="matrix" values="0 0 0 0 0 0 0 0 0 0 0 0 0 0 0 0 0 0 127 0" result="hardAlpha"/>
<feOffset dy="4"/>
<feGaussianBlur stdDeviation="2"/>
<feComposite in2="hardAlpha" operator="out"/>
<feColorMatrix type="matrix" values="0 0 0 0 0 0 0 0 0 0 0 0 0 0 0 0 0 0 0.25 0"/>
<feBlend mode="normal" in2="BackgroundImageFix" result="effect1_dropShadow_1402_471"/>
<feBlend mode="normal" in="SourceGraphic" in2="effect1_dropShadow_1402_471" result="shape"/>
</filter>
</defs>
</svg>
