<svg width="587" height="680" viewBox="0 0 587 680" fill="none" xmlns="http://www.w3.org/2000/svg">
<rect width="587" height="679.07" rx="20" fill="#355300"/>
<g filter="url(#filter0_d_3319_269)">
<mask id="path-2-inside-1_3319_269" fill="white">
<rect x="152" y="96" width="296" height="497" rx="10"/>
</mask>
<rect x="152" y="96" width="296" height="497" rx="10" fill="#FEFFF0"/>
<rect x="152" y="96" width="296" height="497" rx="10" stroke="#E7B343" stroke-width="30" mask="url(#path-2-inside-1_3319_269)"/>
</g>
<g filter="url(#filter1_d_3319_269)">
<path d="M287.083 414C282.711 414 278.947 412.695 275.793 410.085C272.638 407.475 270.734 404.285 270.08 400.515L267.893 386.16C265.788 385.435 263.806 384.565 261.947 383.55C260.088 382.535 258.264 381.447 256.477 380.287L241.416 385.942C237.368 387.537 233.319 387.683 229.271 386.378C225.222 385.073 222.064 382.752 219.797 379.417L208.381 361.583C206.113 358.248 205.466 354.695 206.437 350.925C207.409 347.155 209.595 344.037 212.996 341.572L225.87 332.872C225.708 331.857 225.627 330.877 225.627 329.932V324.059C225.627 323.12 225.708 322.142 225.87 321.127L212.996 312.427C209.595 309.962 207.409 306.845 206.437 303.075C205.466 299.305 206.113 295.752 208.381 292.417L219.797 274.582C222.064 271.247 225.222 268.928 229.271 267.623C233.319 266.318 237.368 266.462 241.416 268.057L256.477 273.712C258.258 272.552 260.12 271.465 262.064 270.45C264.007 269.435 265.95 268.565 267.893 267.84L270.08 253.485C270.727 249.715 272.632 246.525 275.793 243.915C278.954 241.305 282.717 240 287.083 240H309.917C314.289 240 318.056 241.305 321.217 243.915C324.378 246.525 326.279 249.715 326.92 253.485L329.107 267.84C331.212 268.565 333.197 269.435 335.063 270.45C336.928 271.465 338.749 272.552 340.523 273.712L355.584 268.057C359.632 266.462 363.681 266.318 367.729 267.623C371.778 268.928 374.936 271.247 377.203 274.582L388.619 292.417C390.887 295.752 391.534 299.305 390.563 303.075C389.591 306.845 387.405 309.962 384.004 312.427L371.13 321.127C371.292 322.142 371.373 323.123 371.373 324.068V329.932C371.373 330.877 371.211 331.857 370.887 332.872L383.761 341.572C387.162 344.037 389.348 347.155 390.32 350.925C391.291 354.695 390.644 358.248 388.377 361.583L376.717 379.417C374.45 382.752 371.292 385.073 367.243 386.378C363.195 387.683 359.146 387.537 355.098 385.942L340.523 380.287C338.742 381.447 336.88 382.535 334.936 383.55C332.993 384.565 331.05 385.435 329.107 386.16L326.92 400.515C326.273 404.285 324.371 407.475 321.217 410.085C318.062 412.695 314.296 414 309.917 414H287.083ZM298.986 357.45C308.378 357.45 316.394 354.478 323.034 348.533C329.673 342.588 332.993 335.41 332.993 327C332.993 318.59 329.673 311.412 323.034 305.467C316.394 299.522 308.378 296.55 298.986 296.55C289.431 296.55 281.373 299.522 274.811 305.467C268.25 311.412 264.972 318.59 264.978 327C264.985 335.41 268.266 342.588 274.821 348.533C281.376 354.478 289.431 357.45 298.986 357.45Z" fill="#355300"/>
</g>
<ellipse cx="298.5" cy="327" rx="48.5" ry="48" fill="#FEFFF0"/>
<g filter="url(#filter2_d_3319_269)">
<path fill-rule="evenodd" clip-rule="evenodd" d="M327.445 303.874C327.879 304.193 328.238 304.585 328.501 305.027C328.764 305.47 328.927 305.954 328.981 306.453C329.034 306.951 328.977 307.454 328.811 307.933C328.646 308.412 328.377 308.857 328.019 309.243L293.598 346.349L293.585 346.357C292.803 347.195 291.821 347.868 290.71 348.325C289.599 348.782 288.387 349.013 287.163 348.999C285.921 348.987 284.698 348.724 283.587 348.23C282.475 347.735 281.504 347.023 280.746 346.147L280.741 346.139L269.961 333.799C269.601 333.405 269.333 332.951 269.173 332.464C269.012 331.976 268.963 331.465 269.027 330.961C269.092 330.456 269.269 329.968 269.548 329.525C269.826 329.082 270.202 328.693 270.652 328.381C271.102 328.07 271.617 327.841 272.168 327.709C272.718 327.577 273.293 327.544 273.858 327.612C274.423 327.681 274.967 327.849 275.458 328.107C275.949 328.365 276.377 328.708 276.717 329.116L287.266 341.193L321.413 304.385C321.771 303.999 322.211 303.679 322.708 303.444C323.205 303.21 323.748 303.065 324.308 303.017C324.868 302.97 325.433 303.021 325.97 303.168C326.508 303.315 327.008 303.555 327.441 303.874H327.445Z" fill="#E7B343"/>
</g>
<line x1="241" y1="140" x2="361" y2="140" stroke="#E7B343" stroke-width="10"/>
<circle cx="300" cy="533" r="28.5" fill="#E7B343" stroke="#E7B343" stroke-width="5"/>
<defs>
<filter id="filter0_d_3319_269" x="148" y="96" width="304" height="505" filterUnits="userSpaceOnUse" color-interpolation-filters="sRGB">
<feFlood flood-opacity="0" result="BackgroundImageFix"/>
<feColorMatrix in="SourceAlpha" type="matrix" values="0 0 0 0 0 0 0 0 0 0 0 0 0 0 0 0 0 0 127 0" result="hardAlpha"/>
<feOffset dy="4"/>
<feGaussianBlur stdDeviation="2"/>
<feComposite in2="hardAlpha" operator="out"/>
<feColorMatrix type="matrix" values="0 0 0 0 0 0 0 0 0 0 0 0 0 0 0 0 0 0 0.25 0"/>
<feBlend mode="normal" in2="BackgroundImageFix" result="effect1_dropShadow_3319_269"/>
<feBlend mode="normal" in="SourceGraphic" in2="effect1_dropShadow_3319_269" result="shape"/>
</filter>
<filter id="filter1_d_3319_269" x="202" y="240" width="193" height="182" filterUnits="userSpaceOnUse" color-interpolation-filters="sRGB">
<feFlood flood-opacity="0" result="BackgroundImageFix"/>
<feColorMatrix in="SourceAlpha" type="matrix" values="0 0 0 0 0 0 0 0 0 0 0 0 0 0 0 0 0 0 127 0" result="hardAlpha"/>
<feOffset dy="4"/>
<feGaussianBlur stdDeviation="2"/>
<feComposite in2="hardAlpha" operator="out"/>
<feColorMatrix type="matrix" values="0 0 0 0 0 0 0 0 0 0 0 0 0 0 0 0 0 0 0.25 0"/>
<feBlend mode="normal" in2="BackgroundImageFix" result="effect1_dropShadow_3319_269"/>
<feBlend mode="normal" in="SourceGraphic" in2="effect1_dropShadow_3319_269" result="shape"/>
</filter>
<filter id="filter2_d_3319_269" x="265" y="303" width="68" height="54" filterUnits="userSpaceOnUse" color-interpolation-filters="sRGB">
<feFlood flood-opacity="0" result="BackgroundImageFix"/>
<feColorMatrix in="SourceAlpha" type="matrix" values="0 0 0 0 0 0 0 0 0 0 0 0 0 0 0 0 0 0 127 0" result="hardAlpha"/>
<feOffset dy="4"/>
<feGaussianBlur stdDeviation="2"/>
<feComposite in2="hardAlpha" operator="out"/>
<feColorMatrix type="matrix" values="0 0 0 0 0 0 0 0 0 0 0 0 0 0 0 0 0 0 0.25 0"/>
<feBlend mode="normal" in2="BackgroundImageFix" result="effect1_dropShadow_3319_269"/>
<feBlend mode="normal" in="SourceGraphic" in2="effect1_dropShadow_3319_269" result="shape"/>
</filter>
</defs>
</svg>
